<svg xmlns="http://www.w3.org/2000/svg" width="92.819" height="92.819" viewBox="0 0 92.819 92.819"><defs><style>.a{fill:#d1cece;}</style></defs><path class="a" d="M155.8,133.609A22.188,22.188,0,1,0,177.985,155.8,22.213,22.213,0,0,0,155.8,133.609Zm0,38.829A16.641,16.641,0,1,1,172.438,155.8,16.66,16.66,0,0,1,155.8,172.438Zm0,0" transform="translate(-109.387 -109.387)"/><path class="a" d="M90.635,35.841,83.5,34.29a38.823,38.823,0,0,0-2.3-5.536l3.949-6.143a2.774,2.774,0,0,0-.372-3.461L73.669,8.036a2.774,2.774,0,0,0-3.461-.372l-6.143,3.949a38.826,38.826,0,0,0-5.536-2.3L56.978,2.184A2.773,2.773,0,0,0,54.268,0H38.551a2.773,2.773,0,0,0-2.71,2.184L34.29,9.318a38.824,38.824,0,0,0-5.536,2.3L22.61,7.664a2.774,2.774,0,0,0-3.461.372L8.036,19.15a2.774,2.774,0,0,0-.372,3.461l3.949,6.143a38.825,38.825,0,0,0-2.3,5.536L2.184,35.841A2.774,2.774,0,0,0,0,38.551V54.268a2.774,2.774,0,0,0,2.184,2.71l7.134,1.551a38.824,38.824,0,0,0,2.3,5.536L7.664,70.208a2.774,2.774,0,0,0,.372,3.461L19.15,84.782a2.774,2.774,0,0,0,3.461.372L28.754,81.2a38.826,38.826,0,0,0,5.536,2.3l1.551,7.134a2.773,2.773,0,0,0,2.71,2.184H54.268a2.773,2.773,0,0,0,2.71-2.184L58.529,83.5a38.825,38.825,0,0,0,5.536-2.3l6.143,3.949a2.773,2.773,0,0,0,3.461-.372L84.783,73.669a2.774,2.774,0,0,0,.372-3.461L81.2,64.065a38.825,38.825,0,0,0,2.3-5.536l7.134-1.551a2.774,2.774,0,0,0,2.184-2.71V38.551A2.774,2.774,0,0,0,90.635,35.841ZM87.272,52.032,80.73,53.454a2.775,2.775,0,0,0-2.083,1.965,33.278,33.278,0,0,1-3.073,7.411,2.773,2.773,0,0,0,.082,2.863l3.622,5.634-7.952,7.953-5.635-3.622a2.771,2.771,0,0,0-2.862-.082,33.3,33.3,0,0,1-7.412,3.073,2.775,2.775,0,0,0-1.965,2.083l-1.422,6.541H40.787L39.365,80.73A2.775,2.775,0,0,0,37.4,78.648a33.277,33.277,0,0,1-7.411-3.073,2.774,2.774,0,0,0-2.863.082l-5.634,3.622L13.54,71.327l3.621-5.634a2.773,2.773,0,0,0,.083-2.863,33.313,33.313,0,0,1-3.073-7.411,2.774,2.774,0,0,0-2.082-1.965L5.547,52.032V40.786l6.541-1.422A2.775,2.775,0,0,0,14.171,37.4a33.277,33.277,0,0,1,3.073-7.411,2.773,2.773,0,0,0-.082-2.863l-3.622-5.634,7.952-7.953,5.635,3.622a2.771,2.771,0,0,0,2.862.082A33.3,33.3,0,0,1,37.4,14.171a2.775,2.775,0,0,0,1.965-2.083l1.422-6.541H52.032l1.422,6.541a2.775,2.775,0,0,0,1.965,2.083,33.278,33.278,0,0,1,7.411,3.073,2.774,2.774,0,0,0,2.863-.082l5.634-3.622,7.952,7.953-3.621,5.634a2.773,2.773,0,0,0-.083,2.863A33.28,33.28,0,0,1,78.648,37.4a2.774,2.774,0,0,0,2.082,1.965l6.542,1.422Zm0,0" transform="translate(0 0)"/></svg>